<?xml version="1.0" standalone="no"?><!DOCTYPE svg PUBLIC "-//W3C//DTD SVG 1.1//EN" "http://www.w3.org/Graphics/SVG/1.1/DTD/svg11.dtd"><svg
        class="icon" viewBox="0 0 1024 1024" version="1.1" xmlns="http://www.w3.org/2000/svg" xmlns:xlink="http://www.w3.org/1999/xlink" width="200" height="200"><path d="M857.6 1017.6H179.2C90.88 1017.6 19.2 945.92 19.2 857.6V179.2C19.2 90.88 90.88 19.2 179.2 19.2h678.4c88.32 0 160 71.68 160 160v678.4c0 88.32-71.68 160-160 160z m-678.4-960c-66.56 0-121.6 55.04-121.6 121.6v678.4c0 66.56 55.04 121.6 121.6 121.6h678.4c66.56 0 121.6-55.04 121.6-121.6V179.2c0-66.56-55.04-121.6-121.6-121.6H179.2z" fill="#2E2E2E"></path><path d="M518.4 851.2c-183.04 0-332.8-149.76-332.8-332.8 0-39.68 6.4-79.36 20.48-116.48 3.84-10.24 15.36-15.36 24.32-11.52 10.24 3.84 15.36 15.36 11.52 24.32-12.8 33.28-17.92 67.84-17.92 102.4 0 162.56 131.84 294.4 294.4 294.4s294.4-131.84 294.4-294.4-131.84-294.4-294.4-294.4c-62.72 0-124.16 19.2-174.08 57.6-8.96 6.4-20.48 3.84-26.88-3.84-6.4-8.96-3.84-20.48 3.84-26.88 57.6-42.24 125.44-65.28 197.12-65.28 183.04 0 332.8 149.76 332.8 332.8 0 184.32-149.76 334.08-332.8 334.08z" fill="#2E2E2E"></path><path d="M512 441.6c-46.08 0-83.2-37.12-83.2-83.2s37.12-83.2 83.2-83.2 83.2 37.12 83.2 83.2-37.12 83.2-83.2 83.2z m0-128c-24.32 0-44.8 20.48-44.8 44.8s20.48 44.8 44.8 44.8 44.8-20.48 44.8-44.8-20.48-44.8-44.8-44.8zM371.2 672c-46.08 0-83.2-37.12-83.2-83.2s37.12-83.2 83.2-83.2 83.2 37.12 83.2 83.2-37.12 83.2-83.2 83.2z m0-128c-24.32 0-44.8 20.48-44.8 44.8s20.48 44.8 44.8 44.8 44.8-20.48 44.8-44.8-20.48-44.8-44.8-44.8zM665.6 672c-46.08 0-83.2-37.12-83.2-83.2s37.12-83.2 83.2-83.2 83.2 37.12 83.2 83.2-37.12 83.2-83.2 83.2z m0-128c-24.32 0-44.8 20.48-44.8 44.8s20.48 44.8 44.8 44.8 44.8-20.48 44.8-44.8-20.48-44.8-44.8-44.8z" fill="#2E2E2E"></path></svg>