<?xml version="1.0" standalone="no"?><!DOCTYPE svg PUBLIC "-//W3C//DTD SVG 1.1//EN" "http://www.w3.org/Graphics/SVG/1.1/DTD/svg11.dtd"><svg t="1731609023355" class="icon" viewBox="0 0 1024 1024" version="1.1" xmlns="http://www.w3.org/2000/svg" p-id="22903" xmlns:xlink="http://www.w3.org/1999/xlink" width="200" height="200"><path d="M313.782857 496.64v112.566857c2.925714 1.097143 5.485714 2.962286 7.570286 5.558857 19.858286 24.722286 54.016 40.704 90.477714 40.704 26.112 0 48.237714-11.081143 89.490286-40.813714 26.331429-19.017143 31.561143-22.601143 43.556571-29.549714 20.48-11.849143 38.875429-18.102857 57.856-18.102857a168.594286 168.594286 0 0 1 107.446857 38.546285V496.64H313.819429z m0-42.422857h396.434286V210.834286c0-28.452571-19.2-50.432-41.325714-50.432H355.108571c-22.125714 0-41.325714 21.979429-41.325714 50.468571v243.273143z m0 203.922286v140.8c0 28.489143 19.2 50.468571 41.325714 50.468571h313.782858c22.125714 0 41.325714-21.979429 41.325714-50.468571V657.188571a18.249143 18.249143 0 0 1-2.56-2.56 133.485714 133.485714 0 0 0-104.96-51.309714c-11.556571 0-24.210286 4.315429-39.606857 13.238857-10.496 6.070857-15.433143 9.508571-40.557715 27.574857-47.286857 34.084571-74.386286 47.689143-110.701714 47.689143a157.805714 157.805714 0 0 1-98.011428-33.645714z m33.792 233.362285c-43.300571-4.242286-76.251429-44.580571-76.251428-92.525714V210.907429c0-50.761143 36.827429-92.928 83.785142-92.928h313.782858c46.957714 0 83.748571 42.166857 83.748571 92.891428v588.068572c0 47.981714-32.914286 88.32-76.214857 92.562285V914.285714a18.139429 18.139429 0 1 1-36.278857 0v-22.418285h-256.292572V914.285714a18.139429 18.139429 0 1 1-36.278857 0v-22.784zM384 306.505143a21.211429 21.211429 0 1 1 0-42.496h73.142857a21.211429 21.211429 0 1 1 0 42.496h-73.142857z m182.857143 0a21.211429 21.211429 0 1 1 0-42.496h73.142857a21.211429 21.211429 0 1 1 0 42.496h-73.142857z m-182.857143 73.142857a21.211429 21.211429 0 1 1 0-42.496h73.142857a21.211429 21.211429 0 1 1 0 42.496h-73.142857z m182.857143 0a21.211429 21.211429 0 1 1 0-42.496h73.142857a21.211429 21.211429 0 1 1 0 42.496h-73.142857z" fill="#408CFF" p-id="22904"></path></svg>