<?xml version="1.0" standalone="no"?><!DOCTYPE svg PUBLIC "-//W3C//DTD SVG 1.1//EN" "http://www.w3.org/Graphics/SVG/1.1/DTD/svg11.dtd"><svg
        class="icon" viewBox="0 0 1024 1024" version="1.1" xmlns="http://www.w3.org/2000/svg" xmlns:xlink="http://www.w3.org/1999/xlink" width="200" height="200"><path d="M558.522217 139.56665V13.292062c0-7.157264-4.089865-13.292062-8.690964-13.292062H473.657514c-5.112332 0-8.690964 6.134798-8.690964 13.292062V139.56665C228.265602 163.594608 49.333999 371.155267 49.333999 610.923615v7.668497c0 14.314528 11.758362 25.561658 25.561658 25.561657h200.914628c21.983025 109.915127 119.117324 192.734898 235.678482 192.734898s213.695457-82.81977 235.678482-192.734898h200.914628c14.314528 0 25.561658-11.247129 25.561658-25.561657v-20.960559c0-238.234648-182.510235-434.548178-415.121318-458.064903z m-47.03345 603.76635c-64.415377 0-119.117324-41.409885-138.544184-99.179231H650.032951c-19.42686 57.769346-74.128807 99.179231-138.544184 99.179231zM836.121817 792.922616c-6.134798-5.623565-15.848228-5.623565-21.471792 0.511233l-43.966051 45.499751c-5.623565 6.134798-5.623565 15.848228 0.511233 21.471792l46.522217 44.477284c6.134798 5.623565 15.848228 5.623565 21.471792-0.511233l43.966051-45.499751c5.623565-6.134798 5.623565-15.848228-0.511233-21.471792l-46.522217-44.477284zM202.192711 793.433849c-6.134798-5.623565-15.848228-5.623565-21.471792 0.511233l-50.100849 52.145782c-5.623565 6.134798-5.623565 15.848228 0.511233 21.471792l46.010984 43.454818c6.134798 5.623565 15.848228 5.623565 21.471792-0.511233l50.100849-52.145782c5.623565-6.134798 5.623565-15.848228-0.511234-21.471792l-46.010983-43.454818zM530.915627 928.910634H467.522716c-8.17973 0-15.336995 6.646031-15.336995 15.336995v63.39291c0 8.17973 6.646031 15.336995 15.336995 15.336995h63.392911c8.17973 0 15.336995-6.646031 15.336994-15.336995v-63.39291c0-8.690964-7.157264-15.336995-15.336994-15.336995z" fill="#44BCA8"></path></svg>