<?xml version="1.0" standalone="no"?>
<svg xmlns="http://www.w3.org/2000/svg" width="24" height="24"><rect width="24" height="24" opacity="0"></rect><g mask="url(#hms_mask_0)"><path d="M5.26 2.76Q4.51 2.76 3.88 3.13Q3.24 3.5 2.87 4.13Q2.5 4.75 2.5 5.5Q2.5 6.24 2.87 6.88Q3.24 7.51 3.88 7.88Q4.51 8.26 5.26 8.26L18.74 8.26Q19.49 8.26 20.12 7.88Q20.76 7.51 21.13 6.88Q21.5 6.24 21.5 5.5Q21.5 4.75 21.13 4.13Q20.76 3.5 20.12 3.13Q19.49 2.76 18.74 2.76L5.26 2.76ZM5.26 9.24Q4.51 9.24 3.88 9.61Q3.24 9.98 2.87 10.62Q2.5 11.26 2.5 12Q2.5 12.74 2.87 13.38Q3.24 14.02 3.88 14.39Q4.51 14.76 5.26 14.76L18.74 14.76Q19.49 14.76 20.12 14.39Q20.76 14.02 21.13 13.38Q21.5 12.74 21.5 12Q21.5 11.26 21.13 10.62Q20.76 9.98 20.12 9.61Q19.49 9.24 18.74 9.24L5.26 9.24ZM5.26 15.72Q4.51 15.72 3.88 16.09Q3.24 16.46 2.87 17.1Q2.5 17.74 2.5 18.48Q2.5 19.22 2.87 19.86Q3.24 20.5 3.88 20.87Q4.51 21.24 5.26 21.24L18.74 21.24Q19.49 21.24 20.12 20.87Q20.76 20.5 21.13 19.86Q21.5 19.22 21.5 18.48Q21.5 17.74 21.13 17.1Q20.76 16.46 20.12 16.09Q19.49 15.72 18.74 15.72L5.26 15.72Z" fill="rgba(0,0,0,0.9019607843137255)"></path></g><defs><mask id="hms_mask_0"><rect width="24" height="24" fill="#ffffff"></rect><g><path d="M4.51 5.5Q4.51 4.97 4.87 4.61Q5.23 4.25 5.76 4.25Q6.26 4.25 6.64 4.61Q7.01 4.97 7.01 5.5Q7.01 6.02 6.64 6.38Q6.26 6.74 5.76 6.74Q5.23 6.74 4.87 6.38Q4.51 6.02 4.51 5.5ZM4.51 12Q4.51 11.47 4.87 11.11Q5.23 10.75 5.76 10.75Q6.26 10.75 6.64 11.11Q7.01 11.47 7.01 12Q7.01 12.53 6.64 12.89Q6.26 13.25 5.76 13.25Q5.23 13.25 4.87 12.89Q4.51 12.53 4.51 12ZM4.51 18.5Q4.51 17.98 4.87 17.62Q5.23 17.26 5.76 17.26Q6.26 17.26 6.64 17.62Q7.01 17.98 7.01 18.5Q7.01 19.03 6.64 19.39Q6.26 19.75 5.76 19.75Q5.23 19.75 4.87 19.39Q4.51 19.03 4.51 18.5Z" fill="#000000"></path></g></mask></defs></svg>