<?xml version="1.0" standalone="no"?><!DOCTYPE svg PUBLIC "-//W3C//DTD SVG 1.1//EN" "http://www.w3.org/Graphics/SVG/1.1/DTD/svg11.dtd"><svg t="1731608661969" class="icon" viewBox="0 0 1024 1024" version="1.1" xmlns="http://www.w3.org/2000/svg" p-id="15203" xmlns:xlink="http://www.w3.org/1999/xlink" width="200" height="200"><path d="M839.936 271.104H187.136a25.6 25.6 0 1 1 0-51.2h652.8a25.6 25.6 0 0 1 0 51.2zM350.464 183.552H187.136a25.6 25.6 0 0 1 0-51.2h163.328a25.6 25.6 0 0 1 0 51.2zM839.936 183.552h-163.072a25.6 25.6 0 0 1 0-51.2h163.072a25.6 25.6 0 0 1 0 51.2zM187.136 891.136a25.6 25.6 0 0 1-25.6-25.6V334.592a25.6 25.6 0 0 1 25.6-25.6h249.6a25.6 25.6 0 0 1 25.6 25.6v36.864c-4.352 85.504-33.024 207.104-85.76 272.64a43.776 43.776 0 0 0 2.56 53.504 194.816 194.816 0 0 1 44.544 88.832 102.4 102.4 0 0 1-16.128 81.408 55.296 55.296 0 0 1-42.496 20.48l-177.408 2.816z m25.6-530.944V839.68l151.808-2.56s2.048 0 3.584-2.048a53.248 53.248 0 0 0 5.376-39.168 138.496 138.496 0 0 0-31.744-63.232 95.232 95.232 0 0 1-5.12-120.832c43.008-53.248 70.4-164.352 74.496-242.176v-9.472z m224 9.984zM839.936 891.136l-177.664-2.816a54.784 54.784 0 0 1-42.24-20.48 99.328 99.328 0 0 1-16.384-80.64 191.232 191.232 0 0 1 43.008-87.808 44.544 44.544 0 0 0 4.352-55.296c-52.992-65.536-81.664-187.136-85.76-272.64v-36.864a25.6 25.6 0 0 1 25.6-25.6h249.6a25.6 25.6 0 0 1 25.6 25.6v530.944a25.6 25.6 0 0 1-7.68 18.432 25.6 25.6 0 0 1-18.432 7.168z m-224-521.472c4.096 76.8 31.488 188.928 74.496 242.176a95.232 95.232 0 0 1-6.656 122.624 140.288 140.288 0 0 0-30.208 62.208 54.528 54.528 0 0 0 5.376 38.4 4.352 4.352 0 0 0 3.84 2.048l151.552 2.56V360.192h-198.4z" p-id="15204"></path></svg>