<?xml version="1.0" standalone="no"?><!DOCTYPE svg PUBLIC "-//W3C//DTD SVG 1.1//EN" "http://www.w3.org/Graphics/SVG/1.1/DTD/svg11.dtd"><svg t="1731608690761" class="icon" viewBox="0 0 1024 1024" version="1.1" xmlns="http://www.w3.org/2000/svg" p-id="16259" xmlns:xlink="http://www.w3.org/1999/xlink" width="200" height="200"><path d="M705.203931 667.52V142.390857c0-91.830857-50.651429-142.390857-142.299428-142.390857H270.625646C178.648503 0 127.997074 50.56 127.997074 142.390857v739.2C127.997074 973.458286 178.648503 1024 270.625646 1024h292.278857c91.648 0 142.299429-50.56 142.299428-142.409143v-135.990857h149.979429a34.322286 34.322286 0 0 0 40.374857-39.04 34.212571 34.212571 0 0 0-40.374857-39.04h-149.979429z m-55.241142-1.664H511.997074c-14.299429-1.645714-14.299429 26.057143 13.494857 18.742857-10.386286-62.994286-67.2-107.465143-130.614857-102.217143-63.414857 5.211429-112.237714 58.386286-112.237714 122.24 0 63.853714 48.822857 117.028571 112.237714 122.24 63.414857 5.229714 120.228571-39.222857 130.614857-102.217143-18.56 0-27.794286 20.388571-13.494857 18.742858h137.965715v135.058285c0 63.561143-26.916571 90.569143-89.947429 90.569143H271.192503c-63.341714 0-90.258286-27.008-90.258286-90.569143V144.384c0-63.561143 26.916571-90.569143 90.258286-90.569143h288.822857c63.341714 0 89.947429 27.008 89.947429 90.569143v521.472z m-315.757715 37.851429a71.387429 71.387429 0 0 1 107.081143-61.842286 71.387429 71.387429 0 1 1-107.081143 61.842286zM328.225646 154.88a76.525714 76.525714 0 0 0-83.894857 84.224v116.882286a76.214857 76.214857 0 0 0 83.894857 83.894857h155.611428a76.525714 76.525714 0 0 0 84.224-83.894857v-116.882286a76.854857 76.854857 0 0 0-84.205714-84.224h-155.611429z m154.148571 233.069714h-152.941714c-24.228571 0-31.469714-7.862857-31.469714-31.451428v-114.870857c0-24.557714 7.862857-31.469714 31.451428-31.469715h152.96c24.539429 0 31.451429 7.862857 31.451429 31.469715v114.852571c0 24.228571-7.862857 31.469714-31.451429 31.469714z" fill="#000000" p-id="16260"></path></svg>