<?xml version="1.0" standalone="no"?><!DOCTYPE svg PUBLIC "-//W3C//DTD SVG 1.1//EN" "http://www.w3.org/Graphics/SVG/1.1/DTD/svg11.dtd"><svg
        class="icon" viewBox="0 0 1024 1024" version="1.1" xmlns="http://www.w3.org/2000/svg" xmlns:xlink="http://www.w3.org/1999/xlink" width="200" height="200"><path d="M932.807254 0.000746H91.192746A90.819026 90.819026 0 0 0 0.000746 91.192746v841.614508a90.819026 90.819026 0 0 0 91.192 91.192h841.614508a90.819026 90.819026 0 0 0 91.192-91.192V91.379232A90.819026 90.819026 0 0 0 932.807254 0.000746z m-76.086576 697.833258h-70.864949a93.243353 93.243353 0 0 1-182.570486 0H157.20904a25.362192 25.362192 0 1 1 0-50.724385h446.076203a93.243353 93.243353 0 0 1 182.570486 0h71.051436a25.362192 25.362192 0 1 1 0 50.724385z m2.610814-325.978764H458.944532a93.243353 93.243353 0 0 1-182.570486 0H154.598226a23.870298 23.870298 0 0 1-25.362192-25.362192 23.124352 23.124352 0 0 1 25.362192-20.327052h121.589333a87.275779 87.275779 0 0 1 86.156859-71.051435 93.243353 93.243353 0 0 1 91.191999 71.051435h400.759934a34.313554 34.313554 0 0 1 30.397333 20.327052 23.870298 23.870298 0 0 1-25.362192 25.362192z" fill="#747474"></path></svg>