<?xml version="1.0" standalone="no"?><!DOCTYPE svg PUBLIC "-//W3C//DTD SVG 1.1//EN" "http://www.w3.org/Graphics/SVG/1.1/DTD/svg11.dtd"><svg t="1731609150290" class="icon" viewBox="0 0 1024 1024" version="1.1" xmlns="http://www.w3.org/2000/svg" p-id="28230" xmlns:xlink="http://www.w3.org/1999/xlink" width="200" height="200"><path d="M892.9 639.5H136.4c-21.2 0-38.4-17.3-38.4-38.4v-23.7c0-21.2 17.3-38.4 38.4-38.4h756.5c21.2 0 38.4 17.3 38.4 38.4v23.7c0 21-17.3 38.4-38.4 38.4z" fill="#CBE4FE" p-id="28231"></path><path d="M951.4 684.9H71.3c-6.6 0-12.1-5.4-12.1-12.1v-21.3c0-6.6 5.4-12.1 12.1-12.1h880.2c6.6 0 12.1 5.4 12.1 12.1v21.3c-0.1 6.6-5.6 12.1-12.2 12.1z" fill="#CBE4FE" p-id="28232"></path><path d="M882.8 605.3H146.4c-19.3 0-35-15.8-35-35V445.6c0-19.3 15.8-35 35-35h736.4c19.3 0 35 15.8 35 35v124.7c0 19.2-15.8 35-35 35z" fill="#FFFFFF" p-id="28233"></path><path d="M882.8 618.3H146.4c-26.5 0-48-21.5-48-48V445.6c0-26.5 21.5-48 48-48h736.4c26.5 0 48 21.5 48 48v124.7c0 26.5-21.6 48-48 48zM146.4 423.4c-12.2 0-22.1 9.9-22.1 22.1v124.7c0 12.2 9.9 22.1 22.1 22.1h736.4c12.2 0 22.1-9.9 22.1-22.1V445.5c0-12.2-9.9-22.1-22.1-22.1H146.4z" fill="#1B81FC" p-id="28234"></path><path d="M235.3 665H71.8c-7.1 0-13-5.8-13-13 0-7.1 5.8-13 13-13h163.5c7.1 0 13 5.8 13 13-0.1 7.2-5.8 13-13 13z" fill="#1B81FC" p-id="28235"></path><path d="M593.1 665.4H429.7c-7.1 0-13-5.8-13-13 0-7.1 5.8-13 13-13h163.5c7.1 0 13 5.8 13 13-0.1 7.2-5.9 13-13.1 13z" fill="#1B81FC" p-id="28236"></path><path d="M951 665.4H787.5c-7.1 0-13-5.8-13-13 0-7.1 5.8-13 13-13H951c7.1 0 13 5.8 13 13s-5.8 13-13 13z" fill="#1B81FC" p-id="28237"></path><path d="M608.2 410.7H421.5c-8.6 0-15.6-7-15.6-15.6v-28.7c0-8.6 7-15.6 15.6-15.6h186.7c8.6 0 15.6 7 15.6 15.6v28.7c0 8.6-7 15.6-15.6 15.6z" fill="#FFFFFF" p-id="28238"></path><path d="M608.2 423.7H421.5c-15.7 0-28.5-12.8-28.5-28.5v-28.7c0-15.7 12.8-28.5 28.5-28.5h186.7c15.7 0 28.5 12.8 28.5 28.5v28.7c0 15.6-12.8 28.5-28.5 28.5z m-186.7-60c-1.4 0-2.6 1.2-2.6 2.6V395c0 1.4 1.2 2.6 2.6 2.6h186.7c1.4 0 2.6-1.2 2.6-2.6v-28.7c0-1.4-1.2-2.6-2.6-2.6H421.5z" fill="#1B81FC" p-id="28239"></path><path d="M762.9 538.8H266.4c-17 0-30.9-13.9-30.9-30.9s13.9-30.9 30.9-30.9h496.5c17 0 30.9 13.9 30.9 30.9s-13.9 30.9-30.9 30.9z" fill="#CBE4FE" p-id="28240"></path><path d="M762.9 551.8H266.4c-24.1 0-43.9-19.7-43.9-43.9 0-24.1 19.7-43.9 43.9-43.9h496.5c24.1 0 43.9 19.7 43.9 43.9-0.1 24.3-19.8 43.9-43.9 43.9zM266.4 490c-9.9 0-17.9 8-17.9 17.9 0 9.9 8 17.9 17.9 17.9h496.5c9.9 0 17.9-8 17.9-17.9s-8-17.9-17.9-17.9H266.4z" fill="#1B81FC" p-id="28241"></path><path d="M312 478.8c-7.1 0-13-5.8-13-13v-48.7c0-7.1 5.8-13 13-13s13 5.8 13 13v48.7c-0.1 7.2-5.9 13-13 13z" fill="#1B81FC" p-id="28242"></path><path d="M731.1 478.8c-7.1 0-13-5.8-13-13v-48.7c0-7.1 5.8-13 13-13 7.1 0 13 5.8 13 13v48.7c0 7.2-5.9 13-13 13z" fill="#1B81FC" p-id="28243"></path></svg>