<?xml version="1.0" standalone="no"?><!DOCTYPE svg PUBLIC "-//W3C//DTD SVG 1.1//EN" "http://www.w3.org/Graphics/SVG/1.1/DTD/svg11.dtd"><svg t="1731608862990" class="icon" viewBox="0 0 1032 1024" version="1.1" xmlns="http://www.w3.org/2000/svg" p-id="21282" xmlns:xlink="http://www.w3.org/1999/xlink" width="201.5625" height="200"><path d="M517.12 512m-512 0a512 512 0 1 0 1024 0 512 512 0 1 0-1024 0Z" fill="#06CEA1" opacity=".05" p-id="21283"></path><path d="M654.523733 510.848c-18.491733 0.247467-36.795733 3.473067-54.229333 8.823467-17.262933 5.700267-33.851733 13.201067-49.442133 21.563733a327.492267 327.492267 0 0 0-23.3984 13.5424c-7.68 4.949333-14.933333 10.427733-21.9392 16.128a389.8368 389.8368 0 0 0-39.0144 36.898133c-2.935467 3.345067-5.870933 6.6048-8.584534 9.890134l-5.461333 6.7584c-23.808-10.538667-54.6816-19.413333-94.779733-17.109334-27.3152 1.578667-50.090667 6.2976-67.9936 15.556267 7.739733-14.523733 16.836267-31.4624 26.692266-49.792 59.1616-93.892267 133.230933-117.8624 197.4784-119.082667 57.745067-1.109333 134.365867 15.744 204.637867 71.3472-3.234133-1.621333-6.459733-3.2512-9.856-4.5824-16.896-7.278933-35.677867-10.052267-54.109867-9.941333zM386.670933 709.8112c-40.456533 55.338667-71.108267 50.176-84.1984 48.008533-15.3088-2.6112-26.282667-7.1168-37.034666-22.562133-6.570667-9.4208-15.232-30.0544-0.9728-63.1552 19.165867-38.314667 59.997867-42.274133 86.741333-43.0336 26.478933-0.7936 57.019733 9.045333 81.783467 19.6864a2407.1168 2407.1168 0 0 0-46.318934 61.056zM451.072 326.144c8.174933-14.199467 31.854933-47.300267 75.349333-47.300267 29.952 0 53.870933 15.342933 75.2384 48.256 10.914133 16.887467 53.128533 87.313067 91.9296 152.746667-87.261867-64.6144-226.005333-82.730667-323.643733-5.614933 38.5536-70.869333 74.478933-136.328533 81.1264-148.087467z m349.013333 260.1984l0.017067-0.034133c-0.0512-0.1024-0.213333-0.375467-0.264533-0.5376l-0.247467-0.571734h-0.0256c-9.941333-19.464533-145.749333-248.1408-165.76-278.954666-28.322133-43.630933-64.426667-65.757867-107.383467-65.757867-63.5648 0-97.152 46.592-108.689066 66.679467-13.602133 24.064-172.714667 314.769067-187.2896 346.965333-24.302933 53.572267-5.623467 89.9328 3.524266 103.048533 19.473067 27.963733 42.325333 35.106133 62.1568 38.442667 6.272 1.058133 12.433067 1.604267 18.4576 1.604267 37.879467 0 71.031467-20.992 103.0144-64.785067a2400.290133 2400.290133 0 0 1 46.1056-60.654933l0.0512 0.0256 15.556267-19.063467 7.765333-9.557333c2.773333-3.2256 5.546667-6.3232 8.260267-9.386667a359.4496 359.4496 0 0 1 34.645333-33.783467 297.301333 297.301333 0 0 1 18.8416-14.498133c6.485333-4.48 13.0048-8.4736 20.309334-12.706133 14.062933-8.226133 28.288-15.146667 42.9824-20.608 29.2096-10.581333 60.1344-13.687467 87.509333-4.317867 13.738667 4.181333 26.308267 11.946667 37.572267 21.5552 5.623467 4.8384 10.837333 10.2144 15.701333 15.965867 4.608 5.572267 8.789333 11.5712 12.757333 17.732266 3.669333 7.389867 6.510933 15.104 8.413867 22.997334 3.370667 13.986133 9.045333 49.988267-10.990933 82.619733-19.584 31.7952-54.741333 49.911467-96.938667 49.6896-26.385067-0.110933-51.336533-9.9072-76.2368-30.0032-11.2128-9.045333-27.861333-25.361067-34.9696-32.341333-9.045333-8.814933-29.781333-29.124267-46.592-41.3184 0 0-7.466667 8.686933-11.648 13.9264-4.241067 5.265067-12.305067 16.0768-12.305067 16.0768 14.446933 10.453333 35.054933 30.276267 43.716267 38.741333 11.648 11.434667 26.496 25.710933 37.717333 34.756267 31.522133 25.412267 65.194667 38.365867 100.155734 38.528h0.8192c54.596267 0 102.741333-25.361067 128.938666-67.985067 27.613867-44.885333 20.1216-93.047467 15.616-111.675733a147.2512 147.2512 0 0 0-11.264-30.813867z" fill="#06CEA1" p-id="21284"></path><path d="M357.6832 607.3344c-27.3408 1.604267-50.1248 6.306133-67.985067 15.5648l-21.802666 43.0336 0.512-0.059733c20.369067-32.170667 57.668267-36.104533 82.816-36.7872 26.4448-0.8192 56.9856 9.0112 81.749333 19.6608l19.473067-24.302934c-23.808-10.538667-54.656-19.438933-94.762667-17.109333M513.860267 454.024533c57.7536-1.109333 134.3488 15.752533 204.637866 71.355734 3.345067 5.026133-24.917333-45.533867-24.917333-45.533867-87.2704-64.648533-226.013867-82.756267-323.652267-5.623467L317.4144 571.562667c58.973867-92.561067 132.5568-116.309333 196.437333-117.538134" fill="#69E2C7" p-id="21285"></path></svg>